<svg xmlns="http://www.w3.org/2000/svg" xmlns:xlink="http://www.w3.org/1999/xlink" version="1.1" x="0px" y="0px" viewBox="0 0 512 512" enable-background="new 0 0 512 512" xml:space="preserve"><path d="M219.15,256.291c0,20.688,16.831,37.52,37.52,37.52c20.689,0,37.52-16.832,37.52-37.52c0-20.688-16.83-37.52-37.52-37.52  C235.981,218.771,219.15,235.602,219.15,256.291z"></path><path d="M315.241,250.41h10.312c-2.996-35.386-32.734-63.27-68.883-63.27c-36.148,0-65.886,27.884-68.883,63.27h10.312  c2.961-29.708,28.097-52.985,58.571-52.985C287.145,197.425,312.28,220.702,315.241,250.41z"></path><path d="M325.553,262.172h-10.312c-2.961,29.707-28.097,52.984-58.571,52.984c-30.474,0-55.61-23.277-58.571-52.984h-10.312  c2.997,35.385,32.735,63.27,68.883,63.27C292.818,325.441,322.557,297.557,325.553,262.172z"></path><path d="M144.873,147.616h82.507v-30.918H113.955v113.425h30.918V147.616z M136.873,222.123h-14.918v-97.425h97.425v14.918h-82.507  V222.123z"></path><polygon points="284.62,116.698 284.62,147.616 367.126,147.616 367.126,230.123 398.045,230.123 398.045,116.698 "></polygon><polygon points="144.873,281.877 113.955,281.877 113.955,395.303 227.38,395.303 227.38,364.385 144.873,364.385 "></polygon><path d="M367.126,364.385H284.62v30.918h113.425V281.877h-30.919V364.385L367.126,364.385z M375.126,289.877h14.919v97.426H292.62  v-14.918h82.506V289.877L375.126,289.877z"></path></svg>